<?xml version="1.0" encoding="utf-8"?>
<!-- Generator: Adobe Illustrator 23.1.1, SVG Export Plug-In . SVG Version: 6.00 Build 0)  -->
<svg version="1.1" id="Capa_1" xmlns="http://www.w3.org/2000/svg" xmlns:xlink="http://www.w3.org/1999/xlink" x="0px" y="0px"
	 viewBox="0 0 768 1024" style="enable-background:new 0 0 768 1024;" xml:space="preserve">
<style type="text/css">
	.st0{fill:none;stroke:#FFFFFF;stroke-width:31;stroke-miterlimit:10;}
	.st1{fill:none;stroke:#FFFFFF;stroke-width:31;stroke-linecap:round;stroke-linejoin:round;stroke-miterlimit:10;}
</style>
<path class="st0" d="M676.19,645.12H170.31c-19.22,0-34.81-12.28-34.81-27.43V372.13c0-17.76,21.1-30.84,43-26.66l505.88,96.6
	c15.61,2.98,26.61,14,26.61,26.66v148.97C711,632.84,695.42,645.12,676.19,645.12z"/>
<path class="st1" d="M25.5,264c18.64,0.29,37.26,0.49,55.89,0.99c2.41,0.06,4.91,0.15,7.03,1.14c2.61,1.22,4.19,3.58,5.64,5.83
	c15.74,24.42,31.6,48.77,47.43,73.14"/>
<path class="st1" d="M557.5,728.85l-373,29.65c-35.9,0-65-25.38-65-56.69v0c0-31.31,29.1-56.69,65-56.69"/>
<circle class="st1" cx="184.5" cy="858.5" r="62"/>
<circle class="st1" cx="534.5" cy="858.5" r="62"/>
<line class="st0" x1="210.5" y1="356.5" x2="155.5" y2="630.5"/>
<line class="st0" x1="345.5" y1="382.5" x2="171.5" y2="635.5"/>
<line class="st0" x1="458.5" y1="405.5" x2="184.5" y2="638.5"/>
<line class="st0" x1="550.5" y1="420.5" x2="189.5" y2="645.5"/>
<line class="st0" x1="698.5" y1="447.5" x2="224.5" y2="638.5"/>
</svg>
